<?xml version="1.0" encoding="iso-8859-1"?>
<svg xmlns="http://www.w3.org/2000/svg" viewBox="0 0 313.87 53.11">
    <path fill="#fff" d="M264,266.34c1.83,0,3.66.05,5.48,0a1.25,1.25,0,0,1,1.4,1q5,12.69,10.15,25.36c.07.16.16.32.31.61.27-.63.51-1.16.72-1.69q4.87-12.13,9.72-24.27a1.24,1.24,0,0,1,1.39-1c1.79.07,3.58,0,5.59,0l-17.42,41.6c-1-2.44-2-4.68-2.91-6.92l-14-33.51c-.11-.26-.27-.5-.4-.75Z" transform="translate(-264.01 -254.84)"/>
    <path fill="#fff" d="M313.51,289.49v10.18h17.33v5.89H307.67v-39h23.17v5.93H313.56v12h13.62c-.6,1.68-1.11,3.22-1.73,4.72-.09.21-.66.31-1,.31-3.22,0-6.45,0-9.67,0Z" transform="translate(-264.01 -254.84)"/>    
    <path fill="#fff" d="M349.24,289.72v15.65H343.3V266.65c3.12,0,6.2-.11,9.26,0a21.16,21.16,0,0,1,5.46,1,10.59,10.59,0,0,1,7.08,11.27c-.51,5.06-3.13,8.31-8,9.79a4.3,4.3,0,0,0-.55.27l12,16.35a7.6,7.6,0,0,1-.9.12c-1.72,0-3.44,0-5.16,0a1.81,1.81,0,0,1-1.76-.9c-3.31-4.77-6.66-9.5-10-14.25C350.42,289.85,350.14,289.32,349.24,289.72Zm.08-5.39a12.86,12.86,0,0,0,6.75-.9,5.47,5.47,0,0,0,3.26-5.44,5.05,5.05,0,0,0-3.06-5,15,15,0,0,0-7-.9Z" transform="translate(-264.01 -254.84)"/>    
    <path fill="#fff" d="M376.14,294.21l5.72-1.26c.07.43.14.81.18,1.21a6.35,6.35,0,0,0,5.68,5.83,6.07,6.07,0,0,0,6.47-4,5.84,5.84,0,0,0-2.65-7.42,65.31,65.31,0,0,0-6-2.75,15,15,0,0,1-5.27-3.42,9.44,9.44,0,0,1,1.38-13.85c4.18-3.26,13.31-3.68,17.24,3,.19.32.37.66.6,1.08l-4.65,2.72c-2.09-3.24-4.22-4.23-7.5-3.5a4.25,4.25,0,0,0-3.54,3.49,3.78,3.78,0,0,0,2,4.21,43.92,43.92,0,0,0,5.08,2.3,18.14,18.14,0,0,1,6.84,4.19c4.69,5.11,3.33,14-2.81,17.54-6.53,3.81-16.26,1.83-18.52-7.79C376.25,295.35,376.22,294.83,376.14,294.21Z" transform="translate(-264.01 -254.84)"/>
    <path fill="#fff" d="M408.15,305.85c1.83,0,3.66-.05,5.48,0a1.25,1.25,0,0,0,1.4-1q5-12.69,10.15-25.36c.07-.16.16-.32.31-.61.27.63.51,1.16.72,1.69q4.87,12.13,9.72,24.27a1.24,1.24,0,0,0,1.39,1c1.79-.07,3.58,0,5.59,0l-17.42-41.6c-1,2.44-2,4.68-2.91,6.92l-14,33.51c-.11.26-.26.5-.4.75Z" transform="translate(-264.01 -254.84)"/>
    <path fill="#fff" d="M453.34,266.76h6.21V298.4c0,1.4,0,1.4,1.4,1.4h17.62l-1.7,5.84H453.34Z" transform="translate(-264.01 -254.84)"/>
    <path fill="#fff" d="M490.42,267h5.77v38.75h-5.77Z" transform="translate(-264.01 -254.84)"/>
    <path fill="#fff" d="M525.88,305.7h-6.31v-33H507.3v-5.9h31.54c-.36,1.17-.69,2.28-1,3.39-.77,2.45-.77,2.45-3.33,2.45h-8.6Z" transform="translate(-264.01 -254.84)"/>    
    <path fill="#fff" d="M546.12,266.75c2.24,0,4.28,0,6.32,0a1.53,1.53,0,0,1,1,.74c2.65,4.5,5.26,9,7.88,13.54.19.33.4.66.69,1.14.55-.94,1-1.75,1.51-2.57,2.33-4,4.68-8,7-12.08a1.39,1.39,0,0,1,1.43-.82c1.92,0,3.84,0,5.93,0-.24.47-.39.78-.56,1.08q-5.95,10.26-11.88,20.53a3.18,3.18,0,0,0-.4,1.5c0,4.88,0,9.75,0,14.63v1.21h-6v-1.15c0-4.87,0-9.75,0-14.62a3.62,3.62,0,0,0-.46-1.7q-5.86-10.19-11.79-20.34C546.54,267.58,546.39,267.26,546.12,266.75Z" transform="translate(-264.01 -254.84)"/>    
    <circle fill="#fff" cx="297.99" cy="4.41" r="4.41"/>
</svg>