<svg id="Capa_1" enable-background="new 0 0 511.999 511.999" height="512" viewBox="0 0 511.999 511.999" width="512" xmlns="http://www.w3.org/2000/svg"><g><circle cx="256" cy="256" r="10"/><path d="m13.15 315.379c-2.667 1.54-4.476 4.223-4.903 7.271-.427 3.05.574 6.126 2.714 8.34l85.98 88.92c3.178 3.287 8.202 4.011 12.189 1.709 36.605-21.133 69.015-47.569 96.755-78.832-13.205 39.66-19.885 80.949-19.885 123.213v36c0 3.079 1.418 5.987 3.846 7.882 2.432 1.898 5.595 2.565 8.58 1.819l120-30c4.451-1.112 7.574-5.112 7.574-9.701 0-43.542-7.291-89.133-20.435-129.885 6.116 6.91 12.458 13.615 19.026 20.054 3.938 3.861 10.27 3.809 14.142-.14 3.866-3.943 3.804-10.275-.14-14.142-12.722-12.473-24.598-25.953-35.417-40.152 10.798-9.794 18.174-22.575 21.231-36.771 46.426 5.921 90.644 20.329 131.679 42.91l-28.328 99.021c-14.123-8.168-15.692-9.027-19.878-11.528-4.74-2.837-10.88-1.292-13.715 3.447-2.836 4.739-1.292 10.88 3.447 13.715 4.358 2.61 5.485 3.207 31.237 18.091 5.638 3.254 12.829.334 14.614-5.91l34.021-118.92c1.262-4.411-.641-9.116-4.614-11.41-36.593-21.126-75.673-35.984-116.598-44.38 40.925-8.396 80.005-23.254 116.598-44.38l25.979-15c2.667-1.54 4.476-4.223 4.903-7.271.428-3.05-.574-6.126-2.715-8.34l-85.979-88.92c-3.188-3.299-8.214-4.003-12.188-1.709-36.605 21.134-69.015 47.57-96.755 78.831 13.205-39.659 19.885-80.947 19.885-123.211v-36c0-3.079-1.419-5.987-3.846-7.882-2.429-1.896-5.592-2.565-8.58-1.819l-120 30c-4.451 1.112-7.574 5.112-7.574 9.701 0 43.518 7.283 89.082 20.413 129.817-27.858-31.525-60.444-58.169-97.283-79.438l-25.98-15c-2.667-1.539-5.894-1.766-8.749-.61-2.854 1.154-5.019 3.56-5.865 6.521l-34.02 118.92c-1.262 4.411.64 9.116 4.614 11.41 36.593 21.126 75.673 35.984 116.598 44.38-40.925 8.396-80.005 23.254-116.598 44.38zm192.85 173.813v-23.192c0-49.563 9.673-97.716 28.764-143.279 6.814 2.175 13.921 3.279 21.236 3.279 7.308 0 14.408-1.101 21.208-3.269 17.425 42.255 27.712 92.88 28.712 141.48zm50-183.192c-27.355 0-50-22.006-50-50 0-27.987 22.671-50 50-50 26.997 0 50 21.694 50 50 0 28.323-23.019 50-50 50zm150.166-194.337 71.592 74.041-14.888 8.596c-42.933 24.787-89.471 40.488-138.468 46.736-3.063-14.213-10.441-26.991-21.239-36.782 28.341-37.251 62.927-68.345 103.003-92.591zm-100.166-88.856v23.193c0 49.564-9.673 97.717-28.763 143.279-6.815-2.176-13.922-3.279-21.237-3.279-7.308 0-14.408 1.101-21.208 3.268-17.425-42.256-27.712-92.88-28.712-141.48zm-221.758 76.297 14.888 8.596c42.93 24.785 79.795 57.241 109.706 96.554-10.804 9.795-18.185 22.58-21.242 36.781-46.425-5.921-90.644-20.329-131.679-42.91zm103.356 171.86c3.063 14.212 10.44 26.99 21.239 36.782-28.342 37.252-62.928 68.346-103.002 92.591l-71.593-74.041 14.888-8.596c42.933-24.787 89.471-40.488 138.468-46.736z"/><circle cx="366" cy="384" r="10"/></g></svg>