<?xml version="1.0" encoding="iso-8859-1"?>
<!-- Generator: Adobe Illustrator 19.0.0, SVG Export Plug-In . SVG Version: 6.00 Build 0)  -->
<svg version="1.1" id="Capa_1" xmlns="http://www.w3.org/2000/svg" xmlns:xlink="http://www.w3.org/1999/xlink" x="0px" y="0px"
	 viewBox="0 0 512 512" style="enable-background:new 0 0 512 512;" xml:space="preserve">
<g>
	<g>
		<path d="M452.005,166H286.008c-11.248,0-21.639,3.736-30.001,10.028V10c0-5.523-4.477-10-10-10H19.993c-5.523,0-10,4.477-10,10
			v246c0,5.523,4.477,10,10,10s10-4.477,10-10V20h206.013v472H29.993V348.131c0-5.523-4.477-10-10-10c-5.523,0-10,4.477-10,10V502
			c0,5.523,4.477,10,10,10h452.013c5.523,0,10-4.477,10-10V264.28c11.639-4.128,20-15.244,20-28.28v-19.998
			C502.007,188.431,479.576,166,452.005,166z M462.007,286h-57.5c-5.523,0-10,4.477-10,10s4.477,10,10,10h57.5v186h-206V216.001
			c0-16.543,13.458-30.001,30.001-30.001c16.543,0,30.001,13.458,30.001,30.001V236c0,5.514-4.486,10-10,10
			c-5.515,0-10.001-4.486-10.001-10v-6.75c0-5.523-4.477-10-10-10s-10,4.477-10,10V236c0,16.542,13.458,30,30.001,30h155.998V286z
			 M482.008,236L482.008,236c-0.001,5.514-4.487,10-10.001,10H417.55c-0.323-2.091-1.299-4.067-2.802-5.57
			c-1.86-1.86-4.44-2.93-7.07-2.93c-2.64,0-5.21,1.07-7.07,2.93c-1.512,1.504-2.482,3.48-2.803,5.57h-63.514
			c1.11-3.13,1.72-6.495,1.72-10v-19.998c0-11.248-3.736-21.639-10.028-30.001h71.737c-0.023,0.276-0.042,0.552-0.042,0.83
			c0,2.64,1.06,5.21,2.93,7.07c1.86,1.87,4.43,2.93,7.07,2.93c2.63,0,5.21-1.06,7.07-2.93c1.86-1.86,2.93-4.43,2.93-7.07
			c0-0.278-0.018-0.554-0.042-0.83h34.371c16.543,0,30.001,13.458,30.001,30.001V236z"/>
	</g>
</g>
<g>
	<g>
		<path d="M373.077,288.93c-1.86-1.86-4.441-2.93-7.07-2.93c-2.63,0-5.21,1.07-7.07,2.93s-2.93,4.44-2.93,7.07s1.07,5.21,2.93,7.07
			c1.86,1.86,4.44,2.93,7.07,2.93s5.21-1.07,7.07-2.93c1.86-1.86,2.93-4.44,2.93-7.07S374.937,290.79,373.077,288.93z"/>
	</g>
</g>
<g>
	<g>
		<path d="M79.406,120.93c-1.86-1.86-4.43-2.93-7.07-2.93c-2.63,0-5.21,1.07-7.07,2.93c-1.86,1.86-2.93,4.44-2.93,7.07
			s1.07,5.21,2.93,7.07c1.86,1.86,4.44,2.93,7.07,2.93c2.64,0,5.21-1.07,7.07-2.93c1.87-1.86,2.93-4.44,2.93-7.07
			C82.337,125.37,81.277,122.79,79.406,120.93z"/>
	</g>
</g>
<g>
	<g>
		<path d="M109.746,120.93c-1.87-1.86-4.44-2.93-7.07-2.93s-5.21,1.07-7.08,2.93c-1.86,1.86-2.92,4.44-2.92,7.07
			c0.001,2.63,1.061,5.21,2.92,7.07c1.87,1.86,4.44,2.93,7.08,2.93c2.63,0,5.21-1.07,7.07-2.93c1.86-1.86,2.93-4.44,2.93-7.07
			S111.606,122.79,109.746,120.93z"/>
	</g>
</g>
<g>
	<g>
		<path d="M140.077,120.93c-1.86-1.86-4.44-2.93-7.07-2.93s-5.21,1.07-7.07,2.93s-2.93,4.44-2.93,7.07s1.07,5.21,2.93,7.07
			s4.439,2.93,7.07,2.93c2.63,0,5.21-1.07,7.07-2.93s2.93-4.44,2.93-7.07S141.937,122.79,140.077,120.93z"/>
	</g>
</g>
<g>
	<g>
		<path d="M109.747,90.59c-1.86-1.86-4.44-2.92-7.07-2.92c-2.64,0-5.21,1.06-7.08,2.92c-1.86,1.87-2.92,4.44-2.92,7.08
			c0,2.63,1.06,5.21,2.92,7.07c1.87,1.86,4.45,2.93,7.08,2.93s5.21-1.07,7.07-2.93s2.93-4.44,2.93-7.07
			C112.677,95.03,111.607,92.46,109.747,90.59z"/>
	</g>
</g>
<g>
	<g>
		<path d="M109.747,151.26c-1.86-1.86-4.44-2.93-7.07-2.93c-2.64,0-5.21,1.07-7.07,2.93c-1.87,1.86-2.93,4.44-2.93,7.07
			c0,2.64,1.06,5.21,2.93,7.07c1.86,1.87,4.44,2.93,7.07,2.93s5.21-1.06,7.07-2.93c1.86-1.86,2.93-4.43,2.93-7.07
			C112.677,155.7,111.607,153.12,109.747,151.26z"/>
	</g>
</g>
<g>
	<g>
		<path d="M222.867,120.93c-1.86-1.86-4.43-2.93-7.07-2.93c-2.63,0-5.21,1.07-7.07,2.93s-2.93,4.44-2.93,7.07s1.07,5.21,2.93,7.07
			c1.86,1.86,4.439,2.93,7.07,2.93c2.64,0,5.21-1.07,7.07-2.93c1.87-1.86,2.93-4.44,2.93-7.07S224.737,122.79,222.867,120.93z"/>
	</g>
</g>
<g>
	<g>
		<path d="M222.867,376.93c-1.86-1.86-4.43-2.93-7.07-2.93c-2.63,0-5.21,1.07-7.07,2.93s-2.93,4.44-2.93,7.07
			c0.001,2.63,1.07,5.21,2.93,7.07c1.86,1.86,4.44,2.93,7.07,2.93c2.64,0,5.21-1.07,7.07-2.93c1.87-1.86,2.93-4.44,2.93-7.07
			S224.736,378.79,222.867,376.93z"/>
	</g>
</g>
<g>
	<g>
		<path d="M140.067,248.93c-1.86-1.86-4.44-2.93-7.07-2.93c-2.64,0-5.21,1.07-7.07,2.93c-1.87,1.86-2.93,4.44-2.93,7.07
			c-0.001,2.63,1.059,5.21,2.93,7.07c1.86,1.86,4.44,2.93,7.07,2.93s5.21-1.07,7.07-2.93s2.93-4.44,2.93-7.07
			S141.927,250.79,140.067,248.93z"/>
	</g>
</g>
<g>
	<g>
		<path d="M170.398,248.93c-1.86-1.86-4.44-2.93-7.07-2.93s-5.21,1.07-7.07,2.93s-2.93,4.44-2.93,7.07
			c-0.001,2.63,1.069,5.21,2.93,7.07c1.86,1.86,4.44,2.93,7.07,2.93s5.21-1.07,7.07-2.93s2.93-4.44,2.93-7.07
			S172.257,250.79,170.398,248.93z"/>
	</g>
</g>
<g>
	<g>
		<path d="M200.726,248.93c-1.86-1.86-4.43-2.93-7.07-2.93c-2.63,0-5.21,1.07-7.07,2.93s-2.93,4.44-2.93,7.07s1.07,5.21,2.93,7.07
			c1.86,1.86,4.44,2.93,7.07,2.93c2.641,0,5.21-1.07,7.07-2.93c1.87-1.86,2.93-4.44,2.93-7.07S202.596,250.79,200.726,248.93z"/>
	</g>
</g>
<g>
	<g>
		<path d="M61.077,248.93c-1.86-1.86-4.441-2.93-7.07-2.93c-2.63,0-5.21,1.07-7.07,2.93s-2.93,4.44-2.93,7.07s1.07,5.21,2.93,7.07
			c1.86,1.86,4.44,2.93,7.07,2.93s5.21-1.07,7.07-2.93c1.86-1.86,2.93-4.44,2.93-7.07S62.937,250.79,61.077,248.93z"/>
	</g>
</g>
<g>
	<g>
		<path d="M170.398,218.6c-1.86-1.87-4.44-2.93-7.07-2.93s-5.21,1.06-7.07,2.93c-1.86,1.86-2.93,4.43-2.93,7.07
			c-0.001,2.63,1.069,5.21,2.93,7.07c1.86,1.86,4.44,2.93,7.07,2.93s5.21-1.07,7.07-2.93s2.93-4.44,2.93-7.07
			C173.327,223.03,172.257,220.46,170.398,218.6z"/>
	</g>
</g>
<g>
	<g>
		<path d="M170.398,279.26c-1.86-1.86-4.44-2.93-7.07-2.93s-5.21,1.07-7.07,2.93s-2.93,4.44-2.93,7.07
			c-0.001,2.63,1.069,5.21,2.93,7.08c1.86,1.86,4.44,2.92,7.07,2.92s5.21-1.06,7.07-2.92c1.86-1.87,2.93-4.45,2.93-7.08
			C173.327,283.7,172.257,281.12,170.398,279.26z"/>
	</g>
</g>
<g>
	<g>
		<path d="M170.396,56.93c-1.86-1.86-4.44-2.93-7.07-2.93s-5.21,1.07-7.07,2.93c-1.86,1.86-2.93,4.44-2.93,7.07s1.07,5.21,2.93,7.07
			c1.86,1.86,4.441,2.93,7.07,2.93c2.63,0,5.21-1.07,7.07-2.93c1.86-1.86,2.93-4.44,2.93-7.07S172.256,58.79,170.396,56.93z"/>
	</g>
</g>
<g>
	<g>
		<path d="M170.398,454.87c-1.86-1.86-4.44-2.93-7.07-2.93s-5.21,1.07-7.07,2.93s-2.93,4.44-2.93,7.07s1.069,5.21,2.93,7.07
			c1.86,1.86,4.44,2.93,7.07,2.93s5.21-1.07,7.07-2.93s2.93-4.44,2.93-7.07S172.257,456.73,170.398,454.87z"/>
	</g>
</g>
<g>
	<g>
		<path d="M79.407,376.93c-1.86-1.86-4.431-2.93-7.07-2.93c-2.63,0-5.21,1.07-7.07,2.93c-1.86,1.86-2.93,4.44-2.93,7.07
			s1.07,5.21,2.93,7.07c1.86,1.86,4.44,2.93,7.07,2.93c2.64,0,5.21-1.07,7.07-2.93c1.87-1.86,2.93-4.44,2.93-7.07
			S81.277,378.79,79.407,376.93z"/>
	</g>
</g>
<g>
	<g>
		<path d="M109.746,376.93c-1.86-1.86-4.44-2.93-7.07-2.93c-2.64,0-5.21,1.07-7.08,2.93c-1.86,1.86-2.92,4.44-2.92,7.07
			c0.001,2.63,1.061,5.21,2.92,7.07c1.87,1.86,4.44,2.93,7.08,2.93c2.63,0,5.21-1.07,7.07-2.93c1.86-1.86,2.93-4.44,2.93-7.07
			S111.606,378.79,109.746,376.93z"/>
	</g>
</g>
<g>
	<g>
		<path d="M140.077,376.93c-1.86-1.86-4.441-2.93-7.07-2.93c-2.63,0-5.21,1.07-7.07,2.93s-2.93,4.44-2.93,7.07s1.07,5.21,2.93,7.07
			c1.86,1.86,4.44,2.93,7.07,2.93s5.21-1.07,7.07-2.93s2.93-4.44,2.93-7.07S141.937,378.79,140.077,376.93z"/>
	</g>
</g>
<g>
	<g>
		<path d="M109.747,346.6c-1.86-1.87-4.44-2.93-7.07-2.93c-2.64,0-5.21,1.06-7.07,2.93c-1.87,1.86-2.93,4.43-2.93,7.07
			c0,2.63,1.06,5.21,2.93,7.07c1.86,1.86,4.43,2.93,7.07,2.93c2.63,0,5.21-1.07,7.07-2.93c1.86-1.87,2.93-4.44,2.93-7.07
			S111.607,348.46,109.747,346.6z"/>
	</g>
</g>
<g>
	<g>
		<path d="M109.747,407.26c-1.86-1.86-4.44-2.93-7.07-2.93c-2.64,0-5.21,1.07-7.07,2.93c-1.87,1.86-2.93,4.44-2.93,7.07
			c0,2.64,1.06,5.21,2.93,7.07c1.86,1.87,4.43,2.93,7.07,2.93c2.63,0,5.21-1.06,7.07-2.93c1.86-1.86,2.93-4.43,2.93-7.07
			C112.677,411.7,111.607,409.12,109.747,407.26z"/>
	</g>
</g>
<g>
	<g>
		<path d="M446.976,376.93c-1.86-1.86-4.44-2.93-7.07-2.93c-2.64,0-5.21,1.07-7.07,2.93c-1.87,1.86-2.93,4.44-2.93,7.07
			s1.06,5.21,2.93,7.07c1.86,1.86,4.43,2.93,7.07,2.93c2.63,0,5.21-1.07,7.07-2.93s2.93-4.44,2.93-7.07
			S448.836,378.79,446.976,376.93z"/>
	</g>
</g>
<g>
	<g>
		<path d="M384.408,210.1c-1.86-1.87-4.431-2.93-7.07-2.93c-2.63,0-5.21,1.06-7.07,2.93c-1.86,1.86-2.93,4.43-2.93,7.07
			c0,2.63,1.07,5.21,2.93,7.07s4.44,2.93,7.07,2.93c2.64,0,5.21-1.07,7.07-2.93c1.87-1.86,2.93-4.44,2.93-7.07
			C387.337,214.53,386.277,211.96,384.408,210.1z"/>
	</g>
</g>
<g>
	<g>
		<path d="M414.747,210.1c-1.861-1.87-4.441-2.93-7.07-2.93c-2.64,0-5.21,1.06-7.07,2.93c-1.87,1.86-2.93,4.43-2.93,7.07
			c0,2.63,1.06,5.2,2.93,7.07c1.86,1.86,4.43,2.93,7.07,2.93c2.63,0,5.21-1.07,7.07-2.93c1.86-1.87,2.93-4.44,2.93-7.07
			C417.677,214.53,416.607,211.96,414.747,210.1z"/>
	</g>
</g>
<g>
	<g>
		<path d="M445.077,210.1c-1.86-1.87-4.441-2.93-7.07-2.93c-2.63,0-5.21,1.06-7.07,2.93c-1.86,1.86-2.93,4.43-2.93,7.07
			c0,2.63,1.07,5.21,2.93,7.07s4.44,2.93,7.07,2.93s5.21-1.07,7.07-2.93c1.86-1.86,2.93-4.44,2.93-7.07
			C448.007,214.53,446.937,211.96,445.077,210.1z"/>
	</g>
</g>
<g>
	<g>
		<path d="M394.497,454.87c-1.861-1.86-4.43-2.93-7.07-2.93c-2.63,0-5.21,1.07-7.07,2.93c-1.86,1.86-2.93,4.44-2.93,7.07
			s1.07,5.21,2.93,7.07c1.86,1.86,4.44,2.93,7.07,2.93s5.21-1.07,7.07-2.93c1.87-1.86,2.93-4.44,2.93-7.07
			S396.367,456.73,394.497,454.87z"/>
	</g>
</g>
<g>
	<g>
		<path d="M303.517,376.93c-1.861-1.86-4.441-2.93-7.07-2.93c-2.64,0-5.21,1.07-7.07,2.93c-1.87,1.86-2.93,4.44-2.93,7.07
			s1.06,5.21,2.93,7.07c1.86,1.86,4.43,2.93,7.07,2.93c2.63,0,5.21-1.07,7.07-2.93c1.86-1.86,2.93-4.44,2.93-7.07
			S305.377,378.79,303.517,376.93z"/>
	</g>
</g>
<g>
	<g>
		<path d="M333.848,376.93c-1.86-1.86-4.441-2.93-7.07-2.93c-2.63,0-5.21,1.07-7.07,2.93s-2.93,4.44-2.93,7.07s1.07,5.21,2.93,7.07
			c1.86,1.86,4.44,2.93,7.07,2.93s5.21-1.07,7.07-2.93c1.86-1.86,2.93-4.44,2.93-7.07S335.707,378.79,333.848,376.93z"/>
	</g>
</g>
<g>
	<g>
		<path d="M364.177,376.93c-1.86-1.86-4.431-2.93-7.07-2.93c-2.63,0-5.21,1.07-7.07,2.93c-1.86,1.86-2.93,4.44-2.93,7.07
			s1.07,5.21,2.93,7.07c1.86,1.86,4.44,2.93,7.07,2.93c2.64,0,5.21-1.07,7.07-2.93c1.87-1.86,2.93-4.44,2.93-7.07
			S366.047,378.79,364.177,376.93z"/>
	</g>
</g>
<g>
	<g>
		<path d="M333.848,346.6c-1.86-1.87-4.441-2.93-7.07-2.93c-2.63,0-5.21,1.06-7.07,2.93c-1.86,1.86-2.93,4.43-2.93,7.07
			c0,2.63,1.07,5.21,2.93,7.07s4.44,2.93,7.07,2.93s5.21-1.07,7.07-2.93c1.86-1.86,2.93-4.44,2.93-7.07
			C336.777,351.03,335.707,348.46,333.848,346.6z"/>
	</g>
</g>
<g>
	<g>
		<path d="M333.848,407.26c-1.86-1.86-4.441-2.93-7.07-2.93c-2.63,0-5.21,1.07-7.07,2.93s-2.93,4.44-2.93,7.07
			c0,2.64,1.07,5.21,2.93,7.07c1.86,1.87,4.44,2.93,7.07,2.93s5.21-1.06,7.07-2.93c1.86-1.86,2.93-4.43,2.93-7.07
			C336.777,411.7,335.707,409.12,333.848,407.26z"/>
	</g>
</g>
<g>
	<g>
		<path d="M27.066,296.79c-1.86-1.86-4.44-2.92-7.07-2.92c-2.64,0-5.21,1.06-7.07,2.92c-1.87,1.86-2.93,4.44-2.93,7.07
			c0,2.64,1.06,5.21,2.93,7.07c1.86,1.87,4.431,2.93,7.07,2.93c2.63,0,5.21-1.06,7.07-2.93c1.86-1.85,2.93-4.43,2.93-7.07
			C29.996,301.23,28.926,298.65,27.066,296.79z"/>
	</g>
</g>
<g>
</g>
<g>
</g>
<g>
</g>
<g>
</g>
<g>
</g>
<g>
</g>
<g>
</g>
<g>
</g>
<g>
</g>
<g>
</g>
<g>
</g>
<g>
</g>
<g>
</g>
<g>
</g>
<g>
</g>
</svg>
