<?xml version="1.0" encoding="iso-8859-1"?>
<!-- Generator: Adobe Illustrator 19.0.0, SVG Export Plug-In . SVG Version: 6.00 Build 0)  -->
<svg version="1.1" id="Capa_1" xmlns="http://www.w3.org/2000/svg" xmlns:xlink="http://www.w3.org/1999/xlink" x="0px" y="0px"
	 viewBox="0 0 496 496" style="enable-background:new 0 0 496 496;" xml:space="preserve">
<g>
	<g>
		<g>
			<path d="M488,128H333.072l-8-16H360c4.418,0,8-3.582,8-8V8c0-4.418-3.582-8-8-8H136c-4.418,0-8,3.582-8,8v96c0,4.418,3.582,8,8,8
				h34.952l-8,16H8c-4.418,0-8,3.582-8,8v96c0,4.418,3.582,8,8,8h116.448c5.672,9.867,16.171,15.964,27.552,16h72v39.2l-15.84,79.2
				c-0.107,0.527-0.161,1.063-0.16,1.6v80c0,22.091,17.909,40,40,40c22.091,0,40-17.909,40-40v-80c0.001-0.537-0.053-1.073-0.16-1.6
				L272,295.2V256h72c11.381-0.036,21.88-6.133,27.552-16H488c4.418,0,8-3.582,8-8v-96C496,131.582,492.418,128,488,128z M352,96
				h-34.96l-24.056-48H352V96z M352,16v16h-67.032l-7.2-14.336c-0.296-0.584-0.664-1.104-0.984-1.664H352z M144,16h75.2
				c-0.328,0.56-0.696,1.08-0.992,1.664L211.024,32H144V16z M144,96V48h59.008l-24.04,48H144z M16,144h138.92l-8,16H16V144z
				 M123.2,207.408c-2.104,4.492-3.196,9.391-3.2,14.352V224H16v-48h122.888L123.2,207.408z M272,456c0,13.255-10.745,24-24,24
				s-24-10.745-24-24v-79.2l8.16-40.8h31.68l8.16,40.8V456z M257.448,304l3.2,16h-25.296l3.2-16H257.448z M240,288v-68.688l8-8l8,8
				V288H240z M288,240h-16v-24c0-2.122-0.844-4.156-2.344-5.656l-16-16c-3.124-3.123-8.188-3.123-11.312,0l-16,16
				c-1.5,1.5-2.344,3.534-2.344,5.656v24h-16v-36.688l40-40l40,40V240z M360,224c0,8.837-7.163,16-16,16h-40v-40
				c0-2.122-0.844-4.156-2.344-5.656l-48-48c-3.124-3.123-8.188-3.123-11.312,0l-48,48c-1.5,1.5-2.344,3.534-2.344,5.656v40h-40
				c-8.837,0-16-7.163-16-16v-2.24c-0.006-2.556,0.54-5.083,1.6-7.408L232.504,24.8c2.714-5.415,8.263-8.825,14.32-8.8h2.352
				c6.056-0.028,11.604,3.383,14.312,8.8l94.84,189.328c1.109,2.391,1.679,4.996,1.672,7.632V224z M480,224H376v-2.24
				c-0.002-5.039-1.113-10.015-3.256-14.576L357.12,176H480V224z M480,160H349.104l-8-16H480V160z"/>
			<path d="M8,112h96c4.418,0,8-3.582,8-8V8c0-4.418-3.582-8-8-8H8C3.582,0,0,3.582,0,8v96C0,108.418,3.582,112,8,112z M16,16h80v16
				H16V16z M16,48h80v48H16V48z"/>
		</g>
	</g>
</g>
<g>
</g>
<g>
</g>
<g>
</g>
<g>
</g>
<g>
</g>
<g>
</g>
<g>
</g>
<g>
</g>
<g>
</g>
<g>
</g>
<g>
</g>
<g>
</g>
<g>
</g>
<g>
</g>
<g>
</g>
</svg>
