<?xml version='1.0' encoding='iso-8859-1'?>
<!DOCTYPE svg PUBLIC '-//W3C//DTD SVG 1.1//EN' 'http://www.w3.org/Graphics/SVG/1.1/DTD/svg11.dtd'>
<svg version="1.1" xmlns="http://www.w3.org/2000/svg" viewBox="0 0 423.271 423.271" xmlns:xlink="http://www.w3.org/1999/xlink" enable-background="new 0 0 423.271 423.271">
  <g>
    <path d="m288.795,51.787c0,4.756-1.37,6.708-3.639,9.942-1.219,1.736-2.599,3.703-3.768,6.191-1.761,3.749-0.148,8.216 3.601,9.977 1.031,0.484 2.115,0.713 3.184,0.713 2.817,0 5.517-1.595 6.794-4.314 0.615-1.312 1.474-2.535 2.468-3.951 2.685-3.825 6.36-9.064 6.36-18.558 0-9.494-3.677-14.733-6.361-18.558-2.269-3.234-3.639-5.186-3.639-9.941 0-4.754 1.37-6.705 3.639-9.938 0.385-0.549 0.77-1.097 1.146-1.657 2.314-3.435 1.406-8.096-2.029-10.411-3.435-2.315-8.096-1.406-10.41,2.029-0.324,0.48-0.654,0.95-0.984,1.421-2.685,3.825-6.361,9.063-6.361,18.556 0,9.494 3.677,14.733 6.36,18.558 2.269,3.233 3.639,5.185 3.639,9.941z"/>
    <path d="m196.635,51.787c0,4.756-1.37,6.708-3.639,9.942-1.218,1.736-2.599,3.703-3.767,6.191-1.761,3.749-0.149,8.216 3.6,9.977 1.031,0.484 2.115,0.713 3.184,0.713 2.817,0 5.517-1.595 6.793-4.313 0.616-1.312 1.475-2.535 2.468-3.951 2.685-3.825 6.361-9.064 6.361-18.558s-3.676-14.733-6.361-18.558c-2.27-3.234-3.639-5.186-3.639-9.941 0-4.754 1.37-6.706 3.639-9.939 0.385-0.548 0.77-1.097 1.146-1.656 2.314-3.435 1.406-8.096-2.03-10.411-3.435-2.315-8.097-1.406-10.411,2.029-0.323,0.48-0.654,0.95-0.984,1.42-2.685,3.825-6.361,9.063-6.361,18.556 0,9.494 3.676,14.733 6.361,18.558 2.271,3.233 3.64,5.185 3.64,9.941z"/>
    <path d="m104.475,51.787c0,4.756-1.37,6.708-3.639,9.942-1.218,1.736-2.599,3.703-3.767,6.191-1.761,3.749-0.149,8.216 3.6,9.977 1.031,0.484 2.115,0.713 3.184,0.713 2.817,0 5.517-1.595 6.793-4.313 0.616-1.312 1.475-2.535 2.468-3.951 2.685-3.825 6.361-9.064 6.361-18.558s-3.676-14.733-6.361-18.558c-2.27-3.234-3.639-5.186-3.639-9.941 0-4.755 1.37-6.707 3.639-9.94 0.385-0.548 0.769-1.096 1.146-1.655 2.314-3.435 1.406-8.096-2.029-10.411-3.434-2.314-8.096-1.406-10.411,2.029-0.323,0.48-0.653,0.949-0.983,1.419-2.685,3.825-6.362,9.064-6.362,18.558s3.676,14.733 6.361,18.558c2.27,3.232 3.639,5.184 3.639,9.94z"/>
    <path d="m351.129,112.784c-8.375,0-15.553,5.18-18.528,12.5h-11.972c-4.143,0-7.5,3.358-7.5,7.5s3.357,7.5 7.5,7.5h11.972c2.974,7.32 10.152,12.5 18.528,12.5 11.028,0 20-8.972 20-20s-8.972-20-20-20zm0,25c-2.757,0-5-2.243-5-5s2.243-5 5-5 5,2.243 5,5-2.243,5-5,5z"/>
    <path d="m346.129,384.744v-11.972c0-4.142-3.357-7.5-7.5-7.5s-7.5,3.358-7.5,7.5v11.972c-7.32,2.974-12.5,10.153-12.5,18.528 0,11.028 8.972,20 20,20s20-8.972 20-20c0-8.376-5.18-15.554-12.5-18.528zm-7.5,23.527c-2.757,0-5-2.243-5-5s2.243-5 5-5 5,2.243 5,5-2.243,5-5,5z"/>
    <path d="m253.2,140.284h36.115c4.143,0 7.5-3.358 7.5-7.5s-3.357-7.5-7.5-7.5h-36.115c-4.143,0-7.5,3.358-7.5,7.5s3.357,7.5 7.5,7.5z"/>
    <path d="m181.642,254.278h-36.115c-4.142,0-7.5,3.358-7.5,7.5s3.358,7.5 7.5,7.5h36.115c4.142,0 7.5-3.358 7.5-7.5s-3.358-7.5-7.5-7.5z"/>
    <path d="m188.901,197.281c0,4.142 3.358,7.5 7.5,7.5h36.115c4.143,0 7.5-3.358 7.5-7.5s-3.357-7.5-7.5-7.5h-36.115c-4.142,0-7.5,3.358-7.5,7.5z"/>
    <path d="m248.855,254.278h-36.114c-4.142,0-7.5,3.358-7.5,7.5s3.358,7.5 7.5,7.5h36.114c4.143,0 7.5-3.358 7.5-7.5s-3.357-7.5-7.5-7.5z"/>
    <path d="m334.874,246.412c0.752,0.238 1.514,0.351 2.263,0.351 3.185,0 6.139-2.044 7.149-5.241 1.223-3.869 1.843-7.903 1.843-11.992 0-10.871-4.529-21.393-12.426-28.869-3.008-2.848-7.755-2.718-10.603,0.29s-2.718,7.755 0.29,10.603c4.99,4.724 7.738,11.108 7.738,17.976 0,2.553-0.386,5.066-1.146,7.471-1.247,3.948 0.943,8.162 4.892,9.411z"/>
    <path d="m263.615,189.781c-4.143,0-7.5,3.358-7.5,7.5s3.357,7.5 7.5,7.5h36.114c4.143,0 7.5-3.358 7.5-7.5s-3.357-7.5-7.5-7.5h-36.114z"/>
    <path d="m313.707,253.177c-2.36,0.73-4.826,1.1-7.327,1.1h-26.425c-4.143,0-7.5,3.358-7.5,7.5s3.357,7.5 7.5,7.5h26.425c4.005,0 7.961-0.596 11.759-1.77 3.957-1.224 6.173-5.424 4.949-9.381-1.223-3.956-5.425-6.175-9.381-4.949z"/>
    <path d="m327.833,346.172c1.39,2.406 3.91,3.751 6.502,3.751 1.272,0 2.563-0.324 3.743-1.006 3.588-2.071 4.816-6.658 2.745-10.246-7.087-12.273-20.285-19.897-34.443-19.897h-2.307c-4.143,0-7.5,3.358-7.5,7.5s3.357,7.5 7.5,7.5h2.307c8.817-5.68434e-14 17.037,4.751 21.453,12.398z"/>
    <path d="m111.272,132.784c0,4.142 3.358,7.5 7.5,7.5h36.115c4.142,0 7.5-3.358 7.5-7.5s-3.358-7.5-7.5-7.5h-36.115c-4.142,1.42109e-14-7.5,3.358-7.5,7.5z"/>
    <path d="m121.928,261.778c0-4.142-3.358-7.5-7.5-7.5h-22.538c-5.654,0-11.119,1.166-16.244,3.463-3.78,1.694-5.47,6.132-3.776,9.912 1.248,2.783 3.983,4.434 6.848,4.434 1.025,0 2.067-0.211 3.063-0.658 3.183-1.426 6.584-2.15 10.109-2.15h22.537c4.143-0.001 7.501-3.359 7.501-7.501z"/>
    <path d="m77.169,313.923c-6.372-4.725-10.027-11.977-10.027-19.896 0-1.542 0.142-3.085 0.422-4.584 0.761-4.072-1.922-7.989-5.994-8.75-4.077-0.765-7.99,1.923-8.75,5.994-0.45,2.407-0.678,4.876-0.678,7.341 0,12.531 6.016,24.474 16.092,31.945 1.343,0.996 2.909,1.476 4.461,1.476 2.294,0 4.559-1.049 6.03-3.033 2.469-3.329 1.771-8.026-1.556-10.493z"/>
    <path d="m58.914,161.987c0.784,0.26 1.581,0.384 2.363,0.384 3.144,0 6.073-1.992 7.117-5.14 2.971-8.952 10.923-15.522 20.259-16.738 4.107-0.535 7.004-4.298 6.469-8.405-0.535-4.107-4.3-7.006-8.405-6.469-15.007,1.954-27.788,12.508-32.559,26.887-1.304,3.932 0.825,8.176 4.756,9.481z"/>
    <path d="m138.546,318.774h-36.115c-4.142,0-7.5,3.358-7.5,7.5s3.358,7.5 7.5,7.5h36.115c4.142,0 7.5-3.358 7.5-7.5s-3.358-7.5-7.5-7.5z"/>
    <path d="m205.76,318.774h-36.115c-4.142,0-7.5,3.358-7.5,7.5s3.358,7.5 7.5,7.5h36.115c4.142,0 7.5-3.358 7.5-7.5s-3.358-7.5-7.5-7.5z"/>
    <path d="m185.986,140.284h36.114c4.143,0 7.5-3.358 7.5-7.5s-3.357-7.5-7.5-7.5h-36.115c-4.142,0-7.5,3.358-7.5,7.5s3.359,7.5 7.501,7.5z"/>
    <path d="m121.687,197.281c0,4.142 3.358,7.5 7.5,7.5h36.115c4.142,0 7.5-3.358 7.5-7.5s-3.358-7.5-7.5-7.5h-36.115c-4.142,0-7.5,3.358-7.5,7.5z"/>
    <path d="m98.088,189.781h-6.197c-7.858,0-15.077-3.61-19.804-9.904-2.488-3.312-7.189-3.98-10.501-1.493-3.312,2.488-3.98,7.189-1.493,10.501 7.588,10.102 19.178,15.896 31.798,15.896h6.197c4.142,0 7.5-3.358 7.5-7.5s-3.358-7.5-7.5-7.5z"/>
    <path d="m272.974,318.774h-36.115c-4.143,0-7.5,3.358-7.5,7.5s3.357,7.5 7.5,7.5h36.115c4.143,0 7.5-3.358 7.5-7.5s-3.357-7.5-7.5-7.5z"/>
  </g>
</svg>
