<?xml version="1.0" encoding="iso-8859-1"?>
<!-- Generator: Adobe Illustrator 19.0.0, SVG Export Plug-In . SVG Version: 6.00 Build 0)  -->
<svg version="1.1" id="Capa_1" xmlns="http://www.w3.org/2000/svg" xmlns:xlink="http://www.w3.org/1999/xlink" x="0px" y="0px"
	 viewBox="0 0 512 512" style="enable-background:new 0 0 512 512;" xml:space="preserve">
<g>
	<g>
		<rect x="189.085" y="293.006" width="15.208" height="15.208"/>
	</g>
</g>
<g>
	<g>
		<rect x="158.669" y="293.006" width="15.208" height="15.208"/>
	</g>
</g>
<g>
	<g>
		<path d="M155.918,0H51.924L18.809,186.55h62.3v50.693h45.624V186.55h62.3L155.918,0z M111.525,222.036H96.317V186.55h15.208
			V222.036z M36.953,171.343L64.67,15.208h78.501l27.717,156.135H36.953z"/>
	</g>
</g>
<g>
	<g>
		<path d="M451.168,239.778v5.069c0,4.193-3.411,7.604-7.604,7.604h-12.673h-45.624h-12.673c-4.193,0-7.604-3.411-7.604-7.604
			v-5.069h-15.208v5.069c0,12.579,10.234,22.812,22.812,22.812h12.673v17.743c0,4.193-3.411,7.604-7.604,7.604h-98.852v-29.402
			h-15.208v-16.103c14.513-3.443,25.347-16.504,25.347-32.055c0-18.168-14.781-32.951-32.951-32.951
			c-18.169,0-32.951,14.782-32.951,32.951c0,15.552,10.833,28.612,25.347,32.055v16.103h-15.208v29.402h-13.687v15.208h28.895
			v-29.402h15.208v29.402h114.059c12.578,0,22.812-10.233,22.812-22.812v-17.743h15.208v17.743c0,20.965-17.055,38.02-38.02,38.02
			H263.604v94.796c0,4.193-3.411,7.604-7.604,7.604c-4.193,0-7.604-3.411-7.604-7.604v-94.796H134.337
			c-20.965,0-38.02-17.055-38.02-38.02v-17.743h15.208v17.743c0,12.579,10.234,22.812,22.812,22.812h9.125v-15.208h-9.125
			c-4.193,0-7.604-3.411-7.604-7.604v-17.743h12.673c12.578,0,22.812-10.233,22.812-22.812v-5.069H147.01v5.069
			c0,4.193-3.411,7.604-7.604,7.604h-70.97c-4.193,0-7.604-3.411-7.604-7.604v-5.069H45.624v5.069
			c0,12.579,10.234,22.812,22.812,22.812h12.673v17.743c0,29.35,23.878,53.228,53.228,53.228h98.852v79.588
			c0,12.579,10.234,22.812,22.812,22.812c12.578,0,22.812-10.233,22.812-22.812V338.63h98.852c29.349,0,53.228-23.877,53.228-53.228
			v-17.743h12.673c12.578,0,22.812-10.233,22.812-22.812v-5.069H451.168z M256,233.188c-9.783,0-17.743-7.96-17.743-17.743
			s7.96-17.743,17.743-17.743c9.783,0,17.743,7.96,17.743,17.743S265.783,233.188,256,233.188z"/>
	</g>
</g>
<g>
	<g>
		<path d="M460.076,0H356.082l-33.115,186.55h62.3v50.693h45.624V186.55h62.3L460.076,0z M415.683,222.036h-15.208V186.55h15.208
			V222.036z M341.112,171.343l27.717-156.135h78.501l27.717,156.135H341.112z"/>
	</g>
</g>
<g>
	<g>
		<rect x="359.414" y="425.822" width="15.208" height="15.208"/>
	</g>
</g>
<g>
	<g>
		<rect x="420.246" y="425.822" width="15.208" height="15.208"/>
	</g>
</g>
<g>
	<g>
		<rect x="389.83" y="425.822" width="15.208" height="15.208"/>
	</g>
</g>
<g>
	<g>
		<rect x="76.546" y="425.822" width="15.208" height="15.208"/>
	</g>
</g>
<g>
	<g>
		<rect x="137.378" y="425.822" width="15.208" height="15.208"/>
	</g>
</g>
<g>
	<g>
		<rect x="106.962" y="425.822" width="15.208" height="15.208"/>
	</g>
</g>
<g>
	<g>
		<path d="M300.905,368.972l-8.701,12.474c17.008,11.862,27.162,31.295,27.162,51.981c0,34.94-28.426,63.366-63.366,63.366
			s-63.366-28.427-63.366-63.366c0-20.686,10.155-40.119,27.162-51.982l-8.701-12.474c-21.082,14.706-33.669,38.802-33.669,64.455
			C177.426,476.751,212.675,512,256,512c43.325,0,78.574-35.249,78.574-78.574C334.574,407.772,321.987,383.677,300.905,368.972z"/>
	</g>
</g>
<g>
	<g>
		<path d="M303.301,424.373l-14.936,2.855c0.389,2.036,0.586,4.12,0.586,6.197c0,1.995-0.18,3.994-0.536,5.94l14.961,2.736
			c0.52-2.846,0.784-5.766,0.784-8.676C304.158,430.393,303.87,427.348,303.301,424.373z"/>
	</g>
</g>
<g>
	<g>
		<path d="M283.985,450.803c-6.083,9.752-16.544,15.574-27.986,15.574c-18.169,0-32.951-14.782-32.951-32.951
			c0-2.076,0.197-4.161,0.586-6.197l-14.935-2.857c-0.57,2.975-0.858,6.02-0.858,9.053c0,26.554,21.604,48.158,48.158,48.158
			c16.724,0,32.009-8.498,40.888-22.732L283.985,450.803z"/>
	</g>
</g>
<g>
</g>
<g>
</g>
<g>
</g>
<g>
</g>
<g>
</g>
<g>
</g>
<g>
</g>
<g>
</g>
<g>
</g>
<g>
</g>
<g>
</g>
<g>
</g>
<g>
</g>
<g>
</g>
<g>
</g>
</svg>
