<svg id="Capa_1" enable-background="new 0 0 512 512" height="512" viewBox="0 0 512 512" width="512" xmlns="http://www.w3.org/2000/svg"><g><path d="m260.996 70.626c-3.092-1.783-6.9-1.783-9.992 0l-148 85.35c-3.096 1.786-5.004 5.089-5.004 8.663v182.721c0 3.574 1.908 6.877 5.004 8.663l148 85.35c1.546.892 3.271 1.337 4.996 1.337s3.45-.445 4.996-1.337l148-85.35c3.096-1.786 5.004-5.089 5.004-8.663v-182.721c0-3.574-1.908-6.877-5.004-8.663zm133.004 270.957-138 79.582-138-79.582v-171.167l138-79.582 138 79.582z"/><path d="m216.512 162.837-30 90c-1.746 5.239 1.086 10.902 6.325 12.649l80.513 26.837-26.838 80.514c-1.551 4.652.502 9.744 4.847 12.02 4.334 2.272 9.692 1.075 12.641-2.857l90-120c3.939-5.254 1.83-12.837-4.286-15.285l-64.909-25.963 25.14-50.28c3.32-6.64-1.518-14.472-8.944-14.472h-75c-4.306 0-8.127 2.753-9.489 6.837zm68.307 13.163-22.764 45.528c-2.61 5.218-.211 11.579 5.23 13.757l62.885 25.153-45.197 60.264 10.514-31.54c1.746-5.239-1.086-10.902-6.325-12.649l-80.513-26.837 24.559-73.676z"/><circle cx="464" cy="256" r="10"/><path d="m474 130c0-3.574-1.907-6.876-5.003-8.662l-208-120c-3.092-1.783-6.902-1.783-9.994 0l-208 120c-3.096 1.786-5.003 5.087-5.003 8.662v252c0 3.574 1.907 6.876 5.003 8.662l208 120c1.546.892 3.271 1.338 4.997 1.338s3.451-.446 4.997-1.338l208-120c3.096-1.786 5.003-5.088 5.003-8.662v-81c0-5.522-4.478-10-10-10s-10 4.478-10 10v75.225l-198 114.23-198-114.231v-240.449l198-114.23 198 114.23v75.225c0 5.522 4.478 10 10 10s10-4.478 10-10z"/></g></svg>