<svg id="outline" height="512" viewBox="0 0 512 512" width="512" xmlns="http://www.w3.org/2000/svg"><path d="m152 336h16v24h-16z"/><path d="m184 336h16v24h-16z"/><path d="m152 376h16v24h-16z"/><path d="m184 376h16v24h-16z"/><path d="m152 416h16v24h-16z"/><path d="m184 416h16v24h-16z"/><path d="m184 224h16v24h-16z"/><path d="m216 224h16v24h-16z"/><path d="m184 264h16v24h-16z"/><path d="m216 264h16v24h-16z"/><path d="m248 224h16v24h-16z"/><path d="m280 224h16v24h-16z"/><path d="m248 264h16v24h-16z"/><path d="m248 304h16v24h-16z"/><path d="m248 344h16v24h-16z"/><path d="m248 384h16v24h-16z"/><path d="m248 424h16v24h-16z"/><path d="m280 264h16v24h-16z"/><path d="m312 224h16v24h-16z"/><path d="m312 264h16v24h-16z"/><path d="m384 304h-24v-104a8.00008 8.00008 0 0 0 -8-8h-16v-24a8.00008 8.00008 0 0 0 -8-8h-16v-24a8.00008 8.00008 0 0 0 -8-8h-11.05566l-12.94434-25.88867v-38.11133a8.00008 8.00008 0 0 0 -8-8h-8v-40h-16v40h-8a8.00008 8.00008 0 0 0 -8 8v38.11133l-12.94434 25.88867h-11.05566a8.00008 8.00008 0 0 0 -8 8v24h-16a8.00008 8.00008 0 0 0 -8 8v24h-16a8.00008 8.00008 0 0 0 -8 8v104h-24a8.00008 8.00008 0 0 0 -8 8v176a8.00008 8.00008 0 0 0 8 8h256a8.00008 8.00008 0 0 0 8-8v-176a8.00008 8.00008 0 0 0 -8-8zm-136.84473-196.42188a7.99934 7.99934 0 0 0 .84473-3.57812v-32h16v32a7.99934 7.99934 0 0 0 .84473 3.57812l10.21093 20.42188h-38.11132zm-31.15527 36.42188h80v16h-80zm-24 32h128v16h-128zm24 304h-80v-160h80zm64-168v168h-48v-168a8.00008 8.00008 0 0 0 -8-8h-56v-96h176v96h-56a8.00008 8.00008 0 0 0 -8 8zm96 168h-80v-160h80z"/><path d="m312 336h16v24h-16z"/><path d="m344 336h16v24h-16z"/><path d="m312 376h16v24h-16z"/><path d="m344 376h16v24h-16z"/><path d="m312 416h16v24h-16z"/><path d="m344 416h16v24h-16z"/></svg>