<?xml version="1.0"?>
<svg xmlns="http://www.w3.org/2000/svg" id="outline" viewBox="0 0 512 512" width="512" height="512"><path d="M256,360h32a8.00008,8.00008,0,0,0,8-8V296a8.00008,8.00008,0,0,0-8-8H256a8.00008,8.00008,0,0,0-8,8v56A8.00008,8.00008,0,0,0,256,360Zm8-56h16v40H264Z"/><path d="M416,360h32a8.00008,8.00008,0,0,0,8-8V296a8.00008,8.00008,0,0,0-8-8H416a8.00008,8.00008,0,0,0-8,8v56A8.00008,8.00008,0,0,0,416,360Zm8-56h16v40H424Z"/><path d="M24,416H480a8.00008,8.00008,0,0,0,8-8V264a7.99978,7.99978,0,0,0,6.3999-12.7998L472,221.33374V120a8.00008,8.00008,0,0,0-8-8H371.314L357.65674,98.34277a8.00182,8.00182,0,0,0-11.31348,0L332.686,112H240a8.00008,8.00008,0,0,0-8,8v24H120v.00635c-.04913,0-.09784-.00635-.147-.00537a8.00118,8.00118,0,0,0-5.92725,2.793l-96,112A7.99748,7.99748,0,0,0,16,264V408A8.00008,8.00008,0,0,0,24,416Zm296-16V304h24v96Zm40,0V304h24v96Zm112,0H400V296a8.00008,8.00008,0,0,0-8-8H312a8.00008,8.00008,0,0,0-8,8V400H232V264H472ZM244,232H460l12,16H232Zm132-16H360V184h16Zm-32,0H328V184h16Zm112-88v88H424V168a8.00076,8.00076,0,0,0-2.34326-5.65723L387.314,128ZM352,115.31348l56,56V216H392V176a8.00008,8.00008,0,0,0-8-8H320a8.00008,8.00008,0,0,0-8,8v40H296V171.31348ZM316.686,128l-34.34278,34.34277A8.00076,8.00076,0,0,0,280,168v48H248V128ZM232,221.33374l-16.63678,22.18237L138.27142,160H232ZM32,266.959l88.22119-102.9248L210.10236,261.405l.01318.01416.006.00659.00043-.00049A7.99966,7.99966,0,0,0,216,264V400H32Z"/><path d="M160,312h8a8.00058,8.00058,0,0,0,7.76123-9.94043l-8-32A8.00005,8.00005,0,0,0,160,264H80a8.00005,8.00005,0,0,0-7.76123,6.05957l-8,32A8.00058,8.00058,0,0,0,72,312h8v48H64v16H176V360H160ZM86.24609,280h67.50782l4,16H82.24609ZM96,312h16v48H96Zm32,48V312h16v48Z"/></svg>
